<?xml version="1.0" encoding="utf-8"?>
<!-- Generator: Adobe Illustrator 19.0.0, SVG Export Plug-In . SVG Version: 6.00 Build 0)  -->
<svg version="1.1" id="Laag_1" xmlns="http://www.w3.org/2000/svg" xmlns:xlink="http://www.w3.org/1999/xlink" x="0px" y="0px"
	 viewBox="0 0 130 30" width="130" height="30" style="enable-background:new 0 0 130 30;" xml:space="preserve">
<style type="text/css">
	.st0{fill:#114471;}
	.st1{fill:#C6C7C9;}
	.st2{fill:#FFFFFF;}
	.st3{fill:#7B858E;}
</style>
<g id="XMLID_17_">
	<g id="XMLID_147_">
		<path id="XMLID_75_" class="st0" d="M27.8,27.3c-0.1,0.4-0.4,0.6-0.8,0.6H0.2c-0.4,0-0.5-0.3-0.5-0.6L6,0.6C6.1,0.2,6.5,0,6.8,0
			h26.9c0.4,0,0.5,0.3,0.5,0.6L27.8,27.3z"/>
		<g id="XMLID_226_">
			<path id="XMLID_74_" class="st1" d="M35.7,2.1h-1l-6.2,26c-0.1,0.4-0.4,0.6-0.8,0.6H1.9l-0.1,0.7C1.8,29.8,1.9,30,2.3,30h26.9
				c0.4,0,0.7-0.3,0.8-0.6l6.3-26.7C36.3,2.3,36,2.1,35.7,2.1z"/>
		</g>
		<g id="XMLID_209_">
			<g id="XMLID_150_">
				<polygon id="XMLID_157_" class="st2" points="9.7,4.8 8.2,4.8 5.8,13.9 7.3,13.9 				"/>
				<polygon id="XMLID_156_" class="st1" points="21.3,17 19.6,23.6 23.6,23.6 25.3,17 				"/>
				<polygon id="XMLID_155_" class="st1" points="11.4,23.6 17.4,23.6 22.4,4.8 16.4,4.8 				"/>
				<polygon id="XMLID_154_" class="st1" points="12.6,11.5 14.4,4.8 10.3,4.8 8.6,11.5 				"/>
				<polygon id="XMLID_153_" class="st2" points="15.8,4.8 15.1,4.8 10.1,23.6 10.7,23.6 				"/>
				<polygon id="XMLID_152_" class="st2" points="18.8,23.6 23.8,4.8 23.2,4.8 18.2,23.6 				"/>
				<polygon id="XMLID_151_" class="st2" points="28.2,14.6 26.7,14.6 24.3,23.6 25.8,23.6 				"/>
			</g>
		</g>
		<g id="XMLID_148_">
			<g id="XMLID_326_">
				<path id="XMLID_353_" class="st3" d="M47.2,8.5l-0.4-1.8h-2.9l-0.8,1.8h-0.8l3.4-7h0.9l1.4,7H47.2z M46,2.4L46,2.4L44.3,6h2.5
					L46,2.4z"/>
				<path id="XMLID_351_" class="st3" d="M53.5,7c-0.1,0.7-0.1,1.5-0.1,1.5h-0.7l0.1-1.1l0,0c0,0-0.7,1.3-1.8,1.3
					c-1,0-1.4-0.6-1.4-1.5c0-0.1,0-0.3,0.1-0.4l0.5-3.4h0.8l-0.5,3.5C50.3,7.4,50.5,8,51.2,8C52,8,52.9,6.8,53,5.6l0.3-2.3h0.8
					L53.5,7z"/>
				<path id="XMLID_349_" class="st3" d="M58.7,4h-1.4l-0.5,3.3C56.7,7.8,56.9,8,57.3,8c0.4,0,0.8-0.2,0.8-0.2l-0.1,0.7
					c0,0-0.5,0.2-1,0.2c-0.8,0-1.3-0.4-1.1-1.4L56.5,4h-1.3l0.1-0.7h1.3l0.2-1.4l0.8-0.1l-0.2,1.4h1.4L58.7,4z"/>
				<path id="XMLID_346_" class="st3" d="M61.4,8.7c-1.3,0-2-0.7-2-1.9c0-2.2,1-3.5,2.5-3.5c1.3,0,2,0.7,2,1.9
					C64,7.3,63,8.7,61.4,8.7z M62,3.9c-0.9,0-1.5,0.8-1.6,1.8l-0.1,0.7c-0.1,1,0.2,1.6,1.1,1.6s1.5-0.8,1.6-1.8l0.1-0.7
					C63.3,4.5,62.9,3.9,62,3.9z"/>
				<path id="XMLID_343_" class="st3" d="M67.5,8.7c-1.1,0-1.4-0.7-1.4-0.7l0,0L66,8.6h-0.7l1-7.4H67l-0.4,3.2l0,0
					c0,0,0.5-1.1,1.8-1.1C69.5,3.2,70,4,70,5.2C70,6.6,69.5,8.7,67.5,8.7z M68.2,3.9c-0.8,0-1.7,1.1-1.8,2.4l-0.1,1
					c0,0,0.4,0.7,1.3,0.7c1,0,1.5-0.8,1.6-1.8l0.1-0.7C69.3,4.4,68.9,3.9,68.2,3.9z"/>
				<path id="XMLID_340_" class="st3" d="M72.1,6.4L72.1,6.4C72,7.4,72.5,8,73.4,8c1,0,1.6-0.7,1.6-0.7L75,8.2c0,0-0.6,0.5-1.7,0.5
					c-1.3,0-2-0.7-2-1.9c0-2.2,1.1-3.5,2.7-3.5c1.1,0,1.7,0.6,1.7,1.4C75.7,5.8,74.2,6.4,72.1,6.4z M73.9,3.8c-0.8,0-1.6,0.7-1.8,2
					c1.6,0,2.7-0.4,2.7-1.1C74.9,4.1,74.5,3.8,73.9,3.8z"/>
				<path id="XMLID_337_" class="st3" d="M81,7c-0.1,0.6-0.1,1.5-0.1,1.5h-0.7l0.1-1.1l0,0c0,0-0.7,1.3-1.9,1.3
					c-1.1,0-1.6-0.8-1.6-1.9c0-1.5,0.6-3.5,2.5-3.5c1,0,1.4,0.7,1.4,0.7l0,0l0.4-2.7h0.8L81,7z M79.3,3.9c-1,0-1.5,0.8-1.6,1.8
					l-0.1,0.7c-0.1,1.1,0.3,1.6,1,1.6c0.8,0,1.7-1.1,1.8-2.4l0.1-1C80.6,4.6,80.1,3.9,79.3,3.9z"/>
				<path id="XMLID_335_" class="st3" d="M85.9,4c0,0-0.1-0.1-0.2-0.1c-0.8,0-1.6,1-1.8,2.1l-0.4,2.5h-0.8l0.7-5.2h0.7L84,4.4l0,0
					c0,0,0.6-1.2,1.8-1.2c0.1,0,0.2,0,0.2,0L85.9,4z"/>
				<path id="XMLID_332_" class="st3" d="M87.4,8.5h-0.8l0.7-5.2h0.8L87.4,8.5z M88,2.4c-0.3,0-0.5-0.2-0.5-0.5s0.2-0.5,0.5-0.5
					c0.3,0,0.6,0.2,0.6,0.5S88.3,2.4,88,2.4z"/>
				<path id="XMLID_329_" class="st3" d="M90.1,9.3c-0.1,0.9-0.6,1.5-1.6,1.5c-0.4,0-0.7-0.1-0.7-0.1L88,10c0,0,0.2,0.1,0.5,0.1
					c0.5,0,0.8-0.4,0.8-1l0.8-5.8h0.8L90.1,9.3z M90.8,2.4c-0.3,0-0.5-0.2-0.5-0.6c0-0.3,0.2-0.5,0.5-0.5c0.3,0,0.6,0.2,0.6,0.5
					C91.4,2.2,91.1,2.4,90.8,2.4z"/>
				<path id="XMLID_327_" class="st3" d="M95.8,1.8c0,0-0.2-0.1-0.5-0.1c-0.5,0-0.8,0.4-0.9,1l-0.1,0.6h1.4L95.7,4h-1.4l-0.7,5.3
					c-0.1,0.9-0.7,1.5-1.6,1.5c-0.4,0-0.7-0.1-0.7-0.1l0.1-0.7c0,0,0.2,0.1,0.5,0.1c0.5,0,0.8-0.4,0.9-1l0.7-5.2h-1.3l0.1-0.7h1.3
					l0.1-0.8C93.8,1.6,94.3,1,95.3,1C95.7,1,96,1.1,96,1.1L95.8,1.8z"/>
			</g>
		</g>
	</g>
	<path id="XMLID_133_" class="st0" d="M45,25.7h6.1v3H39.4l6.4-12.4h-5.6v-3h11.2L45,25.7z"/>
	<path id="XMLID_124_" class="st0" d="M54.6,16.4c-1.2,0-2.2-1-2.2-2.2s1-2.2,2.2-2.2c1.2,0,2.2,1,2.2,2.2S55.8,16.4,54.6,16.4z
		 M52.7,28.7V17.2h3.7v11.5H52.7z"/>
	<path id="XMLID_116_" class="st0" d="M68.4,23.9h-6.9v0.1c0,1.1,0.6,2.2,2.5,2.2c1.3,0,2.6-0.4,3.6-0.8l0.2,2.8
		c-0.9,0.5-2.4,0.9-4.2,0.9c-4.5,0-5.7-2.3-5.7-6.1c0-3.7,1.4-6.2,5.7-6.2c3.7,0,4.9,2.2,4.9,5.7C68.4,22.9,68.4,23.9,68.4,23.9z
		 M63.4,19.3c-1.4,0-2,1.2-2,2.4H65C65,20.6,64.8,19.3,63.4,19.3z"/>
	<path id="XMLID_110_" class="st0" d="M70,28.7V12.5h3.7v16.3L70,28.7L70,28.7z"/>
	<path id="XMLID_95_" class="st0" d="M85.8,23.9h-6.9v0.1c0,1.1,0.6,2.2,2.5,2.2c1.3,0,2.6-0.4,3.6-0.8l0.2,2.8
		c-0.9,0.5-2.4,0.9-4.2,0.9c-4.5,0-5.7-2.3-5.7-6.1c0-3.7,1.4-6.2,5.7-6.2c3.7,0,4.9,2.2,4.9,5.7C85.8,22.9,85.8,23.9,85.8,23.9z
		 M80.7,19.3c-1.4,0-2,1.2-2,2.4h3.6C82.4,20.6,82.2,19.3,80.7,19.3z"/>
	<path id="XMLID_49_" class="st0" d="M101.1,28.7v-6.8c0-1-0.3-1.8-1.4-1.8c-1,0-1.8,0.8-1.8,1.7v7h-3.7v-6.9c0-1-0.3-1.8-1.4-1.8
		c-1,0-1.8,0.8-1.8,1.7v7h-3.7V17.2h3.5v1.3h0.1c0,0,1.2-1.6,3.4-1.6c1.7,0,2.6,0.7,3.1,1.8c0,0,1.4-1.8,3.6-1.8
		c2.7,0,3.8,1.6,3.8,3.8v8L101.1,28.7L101.1,28.7z"/>
	<path id="XMLID_29_" class="st0" d="M113.4,28.7l-0.2-1.4l0,0c0,0-0.8,1.7-3.4,1.7c-2.3,0-3.6-1.3-3.6-3.5c0-2.7,2.3-3.8,5.3-3.8
		c0.8,0,1.5,0.1,1.5,0.1v-0.8c0-1-0.8-1.4-2-1.4c-1.3,0-2.5,0.4-3.6,0.8l-0.2-2.8c1.3-0.6,2.9-0.9,4.4-0.9c2.8,0,5.1,0.6,5.1,4.1
		v7.7L113.4,28.7L113.4,28.7z M112.9,23.9c0,0-0.3,0-0.8,0c-1,0-2.3,0.3-2.3,1.4c0,0.8,0.5,1.2,1.2,1.2c1,0,1.9-0.8,1.9-2.2V23.9z"
		/>
	<path id="XMLID_18_" class="st0" d="M126,28.7v-6.8c0-1-0.3-1.8-1.7-1.8c-1.1,0-2,0.8-2,1.7v7h-3.7V17.2h3.5v1.3h0.1
		c0,0,1.3-1.6,3.7-1.6c2.1,0,3.8,1,3.8,3.8v8L126,28.7L126,28.7z"/>
</g>
</svg>
